<?xml version="1.0" encoding="UTF-8"?>
<svg id="Layer_2" xmlns="http://www.w3.org/2000/svg" version="1.1" viewBox="0 0 128 128">
  <!-- Generator: Adobe Illustrator 29.8.5, SVG Export Plug-In . SVG Version: 2.1.1 Build 2)  -->
  <g id="_x37_e118e03-342e-4fa1-a1d3-cc8246521624">
    <path d="M64,121.5c-.25,0-.51-.06-.75-.2-.72-.41-.96-1.33-.55-2.05l28-48.5c.41-.72,1.33-.96,2.05-.55.72.41.96,1.33.55,2.05l-28,48.5c-.28.48-.78.75-1.3.75Z" fill="#eaa032"/>
    <path d="M36,114c-.26,0-.52-.07-.75-.2-.46-.27-.75-.76-.75-1.3V15.5c0-.83.67-1.5,1.5-1.5s1.5.67,1.5,1.5v94.4l46.25-26.7c.72-.41,1.63-.17,2.05.55.41.72.17,1.63-.55,2.05l-48.5,28c-.23.13-.49.2-.75.2Z" fill="#eaa032"/>
    <path d="M92,58c-.52,0-1.02-.27-1.3-.75l-7.5-13c-.41-.72-.17-1.63.55-2.05.72-.41,1.63-.17,2.05.55l7.5,13c.41.72.17,1.63-.55,2.05-.24.14-.49.2-.75.2Z" fill="#eaa032"/>
    <path d="M71.5,93.5h-35.5c-.83,0-1.5-.67-1.5-1.5s.67-1.5,1.5-1.5h35.5c.83,0,1.5.67,1.5,1.5s-.67,1.5-1.5,1.5Z" fill="#eaa032"/>
    <path d="M92,49.33c-.25,0-.51-.06-.75-.2l-20.5-11.83c-.72-.41-.96-1.33-.55-2.05.41-.72,1.33-.96,2.05-.55l20.5,11.83c.72.41.96,1.33.55,2.05-.28.48-.78.75-1.3.75Z" fill="#eaa032"/>
    <path d="M56.5,93.5c-.25,0-.51-.06-.75-.2l-20.5-11.83c-.72-.41-.96-1.33-.55-2.05.41-.72,1.33-.96,2.05-.55l20.5,11.83c.72.41.96,1.33.55,2.05-.28.48-.78.75-1.3.75Z" fill="#eaa032"/>
    <path d="M92,37.5h-35.5c-.83,0-1.5-.67-1.5-1.5s.67-1.5,1.5-1.5h35.5c.83,0,1.5.67,1.5,1.5s-.67,1.5-1.5,1.5Z" fill="#eaa032"/>
    <path d="M43.5,86c-.52,0-1.02-.27-1.3-.75l-7.5-12.99c-.41-.72-.17-1.63.55-2.05.72-.41,1.63-.17,2.05.55l7.5,12.99c.41.72.17,1.63-.55,2.05-.24.14-.49.2-.75.2Z" fill="#eaa032"/>
    <path d="M92,114c-.83,0-1.5-.67-1.5-1.5V18.1l-46.25,26.7c-.72.42-1.63.17-2.05-.55-.41-.72-.17-1.63.55-2.05l48.5-28c.46-.27,1.04-.27,1.5,0,.46.27.75.76.75,1.3v96.99c0,.83-.67,1.5-1.5,1.5Z" fill="#eaa032"/>
    <path d="M36,58c-.25,0-.51-.06-.75-.2-.72-.41-.96-1.33-.55-2.05L62.7,7.25c.41-.72,1.33-.96,2.05-.55.72.41.96,1.33.55,2.05l-28,48.5c-.28.48-.78.75-1.3.75Z" fill="#eaa032"/>
    <path d="M64,93.5c-16.27,0-29.5-13.23-29.5-29.5s13.23-29.5,29.5-29.5,29.5,13.23,29.5,29.5-13.23,29.5-29.5,29.5ZM64,37.5c-14.61,0-26.5,11.89-26.5,26.5s11.89,26.5,26.5,26.5,26.5-11.89,26.5-26.5-11.89-26.5-26.5-26.5Z" fill="#fff"/>
    <path d="M64,121.5c-31.71,0-57.5-25.79-57.5-57.5S32.29,6.5,64,6.5s57.5,25.79,57.5,57.5-25.79,57.5-57.5,57.5ZM64,9.5c-30.05,0-54.5,24.45-54.5,54.5s24.45,54.5,54.5,54.5,54.5-24.45,54.5-54.5S94.05,9.5,64,9.5Z" fill="#fff"/>
  </g>
</svg>