<?xml version="1.0" encoding="UTF-8" standalone="no"?>
<svg
   width="31.004759"
   height="31.000895"
   viewBox="0 0 31.004759 31.000895"
   version="1.1"
   id="svg88"
   sodipodi:docname="toolbar_orient.svg"
   inkscape:export-filename="toolbar_orient.svg"
   inkscape:export-xdpi="396.32626"
   inkscape:export-ydpi="396.32626"
   xmlns:inkscape="http://www.inkscape.org/namespaces/inkscape"
   xmlns:sodipodi="http://sodipodi.sourceforge.net/DTD/sodipodi-0.dtd"
   xmlns="http://www.w3.org/2000/svg"
   xmlns:svg="http://www.w3.org/2000/svg">
  <defs
     id="defs92" />
  <sodipodi:namedview
     id="namedview90"
     pagecolor="#505050"
     bordercolor="#eeeeee"
     borderopacity="1"
     inkscape:showpageshadow="0"
     inkscape:pageopacity="0"
     inkscape:pagecheckerboard="0"
     inkscape:deskcolor="#505050"
     showgrid="false" />
  <path
     d="m 21.503867,18.000894 a 0.5,0.5 0 0 1 -0.5,-0.5 v -3.5 h -7 v 3.5 a 0.5,0.5 0 0 1 -1,0 v -6 a 0.5,0.5 0 0 1 0.084,-0.277 l 2,-3.0000002 a 0.5,0.5 0 0 1 0.416,-0.223 h 4 a 0.5,0.5 0 0 1 0.416,0.223 l 2,3.0000002 a 0.5,0.5 0 0 1 0.084,0.277 v 6 a 0.5,0.5 0 0 1 -0.5,0.5 z m -7.5,-5 h 7 v -1.349 l -1.768,-2.6510002 h -3.464 l -1.768,2.6510002 z"
     style="fill:#dbd0d1;fill-opacity:1"
     id="path78" />
  <path
     d="m 7.9678667,25.314894 a 0.5,0.5 0 0 0 -0.65,-0.278 l -4.162,1.664 a 17.321,17.321 0 0 1 3.739,-6.888 0.50022495,0.50022495 0 1 0 -0.782,-0.624 19.312,19.312 0 0 0 -3.75,6.612 l -1.39500003,-3.486 a 0.5,0.5 0 1 0 -0.928,0.372 l 2.00000003,5 c 0,0.01 0.016,0.015 0.021,0.025 a 0.475,0.475 0 0 0 0.15,0.185 c 0.009,0.007 0.016,0.017 0.025,0.023 a 0.5,0.5 0 0 0 0.2,0.076 0.367,0.367 0 0 0 0.068,0.005 v 0 a 0.475,0.475 0 0 0 0.181,-0.036 v 0 l 5,-2 a 0.5,0.5 0 0 0 0.283,-0.65 z"
     style="fill:#2172eb;fill-opacity:1"
     id="path80" />
  <rect
     x="0.0038666725"
     y="30.000895"
     width="31"
     height="1"
     style="fill:#dbd0d1;fill-opacity:1"
     id="rect82" />
  <path
     d="m 30.857867,13.146894 -13,-13.00000017 a 0.5,0.5 0 0 0 -0.708,0 L 4.1498667,13.146894 a 0.5006316,0.5006316 0 0 0 0.708,0.708 L 17.503867,1.2078938 l 12.293,12.2930002 -12.647,12.646 a 0.5006316,0.5006316 0 0 0 0.708,0.708 l 13,-13 a 0.5,0.5 0 0 0 0,-0.708 z"
     style="fill:#dbd0d1;fill-opacity:1"
     id="path84" />
  <path
     d="m 17.503867,27.000894 a 0.5,0.5 0 0 1 -0.354,-0.146 l -13.0000003,-13 a 0.5006316,0.5006316 0 0 1 0.708,-0.708 l 13.0000003,13 a 0.5,0.5 0 0 1 -0.354,0.854 z"
     style="fill:#2172eb;fill-opacity:1"
     id="path86" />
</svg>
